<?xml version="1.0"?>
<svg xmlns="http://www.w3.org/2000/svg" xmlns:xlink="http://www.w3.org/1999/xlink" xmlns:svgjs="http://svgjs.com/svgjs" version="1.1" width="512" height="512" x="0" y="0" viewBox="0 0 512 512.00012" style="enable-background:new 0 0 512 512" xml:space="preserve" class=""><g><path xmlns="http://www.w3.org/2000/svg" d="m199.199219 512c-109.839844 0-199.199219-89.359375-199.199219-199.199219 0-65 50.308594-121.945312 94.691406-172.183593 15.285156-17.300782 29.722656-33.640626 41.777344-49.695313 22.742188-30.277344 34.621094-47.664063 49.3125-76.949219 5.578125-11.117187 17.003906-16.136718 29.824219-13.101562 32.363281 7.664062 80.355469 68.671875 111.613281 118.589844 21.402344 34.171874 71.183594 121.417968 71.183594 193.339843 0 109.839844-89.363282 199.199219-199.203125 199.199219zm11.703125-481.171875c-14.949219 29.332031-27.414063 47.488281-50.425782 78.125-12.773437 17.007813-27.589843 33.78125-43.28125 51.542969-42.855468 48.507812-87.171874 98.667968-87.171874 152.304687 0 93.28125 75.894531 169.175781 169.179687 169.175781 93.28125 0 169.175781-75.894531 169.175781-169.175781 0-45.582031-25.832031-113.378906-69.101562-181.359375-18.214844-28.621094-38.164063-54.898437-56.167969-73.988281-16.550781-17.546875-27.214844-24.457031-32.207031-26.625zm1.71875-3.394531c-.003906.003906-.007813.007812-.007813.011718 0-.003906.003907-.007812.007813-.011718zm0 0" fill="#00ff7f" data-original="#f30051" style="" class=""/><path xmlns="http://www.w3.org/2000/svg" d="m201.824219 437.113281c-8.292969 0-15.015625-6.71875-15.015625-15.011719 0-8.289062 6.722656-15.011718 15.015625-15.011718 47.53125 0 86.203125-38.671875 86.203125-86.207032 0-8.289062 6.722656-15.011718 15.011718-15.011718 8.292969 0 15.015626 6.722656 15.015626 15.011718 0 64.089844-52.144532 116.230469-116.230469 116.230469zm0 0" fill="#0de377" data-original="#ff3980" style="" class=""/></g></svg>
