<?xml version="1.0"?>
<svg xmlns="http://www.w3.org/2000/svg" xmlns:xlink="http://www.w3.org/1999/xlink" xmlns:svgjs="http://svgjs.com/svgjs" version="1.1" width="512" height="512" x="0" y="0" viewBox="0 0 512 512.12884" style="enable-background:new 0 0 512 512" xml:space="preserve" class=""><g><path xmlns="http://www.w3.org/2000/svg" d="m324.3125 503.671875h-124.074219c-9.394531-.046875-16.980469-7.675781-16.980469-17.066406-.011718-5.628907-2.789062-10.890625-7.425781-14.078125l-138.15625-94.722656c-9.5625-6.574219-13.546875-18.734376-9.726562-29.695313l2.132812-5.972656 34.476563-97.792969c4.777344-13.617188 17.652344-22.726562 32.085937-22.699219h67.15625c7.09375.011719 14.007813 2.21875 19.796875 6.316407l3.15625 2.304687 17.152344 12.285156 1.28125-1.789062c2.171875-2.046875 4.066406-4.371094 5.632812-6.914063 4.046876-6.742187 2.183594-15.46875-4.269531-19.96875l-44.199219-31.316406c-2.898437-2.042969-6.355468-3.144531-9.902343-3.15625h-26.621094v-.425781c-3.253906-17.109375-3.023437-34.699219.679687-51.714844l-.167968-.167969 4.605468-4.097656 33.792969-32.425781c12.851563-12.996094 13.261719-33.78125.9375-47.273438l.515625-.429687c1.660156-1.019532 3.398438-1.90625 5.203125-2.644532 13.449219-6.792968 29.863281-1.882812 37.375 11.179688 17.066407 25.597656-34.046875 50.773438-8.53125 101.972656 14.078125 28.160156 51.96875 56.148438 59.648438 61.867188 44.164062 39.980468 67.875 97.789062 64.511719 157.269531-1.957032 21.382813-.605469 42.941406 4.011718 63.914063l12.542969 46.335937c1.171875 5.070313-.035156 10.398437-3.277344 14.46875-3.238281 4.070313-8.160156 6.441406-13.363281 6.4375zm0 0" fill="#fbfbfb" data-original="#bc2b6a" style="" class=""/><g xmlns="http://www.w3.org/2000/svg" fill="#ef3a76"><path d="m298.710938 503.671875h-98.472657c-9.394531-.046875-16.980469-7.675781-16.980469-17.066406-.011718-5.628907-2.789062-10.890625-7.425781-14.078125l-138.15625-94.722656c-9.5625-6.574219-13.546875-18.734376-9.726562-29.695313l2.132812-5.972656 34.476563-97.792969c4.777344-13.617188 17.652344-22.726562 32.085937-22.699219h41.554688c7.09375.011719 14.007812 2.21875 19.796875 6.316407l20.3125 14.589843 1.277344-1.789062c2.175781-2.046875 4.070312-4.371094 5.632812-6.914063.667969-1.121094 1.1875-2.324218 1.535156-3.582031l17.152344 12.285156 1.28125-1.789062c2.171875-2.046875 4.066406-4.371094 5.632812-6.914063 4.046876-6.742187 2.183594-15.46875-4.269531-19.96875l-44.199219-31.316406c-2.898437-2.042969-6.355468-3.144531-9.902343-3.15625h-26.621094v-.425781c-3.253906-17.109375-3.023437-34.699219.679687-51.714844l-.167968-.167969 4.605468-4.097656 33.792969-32.425781c12.851563-12.996094 13.261719-33.78125.9375-47.273438l.515625-.429687c1.660156-1.019532 3.398438-1.90625 5.203125-2.644532 4.804688 2.675782 8.851563 6.523438 11.777344 11.179688 17.066406 25.597656-34.050781 50.773438-8.535156 101.972656 14.082031 28.160156 51.96875 56.148438 59.648437 61.867188 44.164063 39.980468 67.878906 97.789062 64.511719 157.269531-1.957031 21.382813-.601563 42.941406 4.011719 63.914063l12.542968 46.335937c1.171876 5.070313-.035156 10.398437-3.273437 14.46875-3.242187 4.070313-8.164063 6.441406-13.367187 6.4375zm0 0" fill="#23df4a" data-original="#ef3a76" style="" class=""/><path d="m98.265625 59.9375v22.015625l-.171875.171875-51.03125 47.703125v-86.957031c.03125-9.414063 7.65625-17.039063 17.070312-17.066406 9.054688-.011719 17.742188 3.582031 24.148438 9.984374 6.402344 6.40625 9.996094 15.09375 9.984375 24.148438zm0 0" fill="#23df4a" data-original="#ef3a76" style="" class=""/><path d="m164.738281 90.574219-33.792969 32.425781-2.386718 2.132812-2.21875 1.964844-42.15625 37.972656c-1.726563 1.792969-2.542969 4.273438-2.21875 6.742188.375 2.367188.546875 4.765625.511718 7.167969v.425781h-3.242187c-14.5-.050781-27.457031 9.042969-32.339844 22.699219l-20.820312 58.453125-2.476563-.855469c-4.390625-28.832031-6.53125-57.960937-6.398437-87.125-.109375-6.535156 2.304687-12.863281 6.738281-17.664063l23.042969-25h.082031v-.085937l51.03125-47.703125.171875-.171875 42.324219-39.679687c3.191406-3.21875 7.539062-5.03125 12.074218-5.03125 4.535157 0 8.882813 1.8125 12.074219 5.03125.335938.320312.648438.664062.9375 1.027343 12.324219 13.492188 11.914063 34.277344-.9375 47.273438zm0 0" fill="#23df4a" data-original="#ef3a76" style="" class=""/></g><path xmlns="http://www.w3.org/2000/svg" d="m125.828125 130.59375c-.070313.25-.101563.511719-.085937.769531l-.085938.085938c.085938-.257813.085938-.597657.171875-.855469zm0 0" fill="#fdfdfd" data-original="#fdd7ad" style="" class=""/><path xmlns="http://www.w3.org/2000/svg" d="m212.953125 226.082031c.007813 2.734375-.730469 5.421875-2.132813 7.765625-1.566406 2.542969-3.460937 4.867188-5.632812 6.914063l-1.28125 1.789062-20.308594-14.589843c-5.789062-4.097657-12.703125-6.304688-19.796875-6.316407h-67.15625c-1.109375 0-2.21875.085938-3.246093.171875-1.023438.085938-2.046876.253906-3.070313.425782-1.28125.257812-2.472656.597656-3.667969.9375-.964844.265624-1.90625.609374-2.816406 1.027343-.085938.082031-.257812.082031-.34375.167969-1.105469.390625-2.164062.90625-3.15625 1.539062-1.058594.480469-2.0625 1.082032-2.984375 1.789063-1.011719.613281-1.953125 1.328125-2.816406 2.132813-.933594.707031-1.792969 1.507812-2.5625 2.390624l-1.707031 1.964844-.082032.082032c-.769531.941406-1.453125 1.878906-2.136718 2.902343-.425782.683594-.765626 1.28125-1.191407 1.964844l-.257812.511719c-.425781.695312-.769531 1.441406-1.023438 2.21875-.429687.785156-.773437 1.613281-1.023437 2.472656l-34.476563 97.792969-10.238281-6.996094c-9.648438-6.433594-13.664062-18.621094-9.730469-29.527344l15.960938-45.054687 20.820312-58.453125c4.882813-13.65625 17.839844-22.75 32.339844-22.699219h73.214844c3.546875.011719 7.003906 1.113281 9.902343 3.15625l44.199219 31.316406c3.984375 2.792969 6.367188 7.339844 6.402344 12.203125zm0 0" fill="#23df4a" data-original="#ef3a76" style="" class=""/><path xmlns="http://www.w3.org/2000/svg" d="m124.207031 141.859375c-.65625 6.175781-.828125 12.398437-.511719 18.601563v.511718c0 .425782.082032.941406.082032 1.367188-.011719.230468.015625.460937.085937.683594.03125 1.597656.148438 3.191406.34375 4.777343.167969 1.621094.339844 3.242188.597657 4.863281.253906 2.046876.59375 4.179688 1.023437 6.316407v.425781h-43.351563v-.425781c.035157-2.402344-.136718-4.800781-.511718-7.167969-.324219-2.46875.492187-4.949219 2.21875-6.742188l42.15625-37.972656.167968.167969c-.167968 1.023437-.425781 2.132813-.679687 3.328125-.085937.257812-.085937.597656-.171875.855469-.339844 2.046875-.769531 4.351562-1.023438 6.65625-.171874 1.195312-.339843 2.472656-.425781 3.753906zm0 0" fill="#23df4a" data-original="#ef3a76" style="" class=""/><path xmlns="http://www.w3.org/2000/svg" d="m123.695312 160.460938c-.316406-6.203126-.144531-12.425782.511719-18.601563-.570312 6.183594-.742187 12.398437-.511719 18.601563zm0 0" fill="#fdfdfd" data-original="#fdd7ad" style="" class=""/><path xmlns="http://www.w3.org/2000/svg" d="m128.558594 125.132812-2.816406 6.230469-.085938.085938c.085938-.257813.085938-.597657.171875-.855469.253906-1.195312.511719-2.304688.679687-3.328125l-.167968-.167969zm0 0" fill="#fdfdfd" data-original="#fdd7ad" style="" class=""/><path xmlns="http://www.w3.org/2000/svg" d="m164.738281 90.574219-33.792969 32.425781-2.386718 2.132812-2.21875 1.964844-42.15625 37.972656c-1.726563 1.792969-2.542969 4.273438-2.21875 6.742188.375 2.367188.546875 4.765625.511718 7.167969v.425781h-3.242187c-6.257813-.011719-12.398437 1.699219-17.75 4.949219v-4.949219c0-2.816406-.167969-10.070312-.511719-11.949219-.324218-2.464843.492188-4.945312 2.21875-6.738281l42.15625-37.972656 2.21875-1.964844 2.386719-2.132812 33.792969-32.425782c12.769531-12.90625 13.253906-33.527344 1.109375-47.019531 2.417969-1.289063 5.113281-1.960937 7.851562-1.964844 4.519531.015625 8.851563 1.824219 12.03125 5.035157.335938.320312.648438.664062.9375 1.027343 12.324219 13.492188 11.914063 34.277344-.9375 47.273438zm0 0" fill="#fbfbfb" data-original="#bc2b6a" style="" class=""/><path xmlns="http://www.w3.org/2000/svg" d="m191.824219 29.449219c-8.558594-1.519531-17.375-.289063-25.191407 3.515625-10.085937-6.285156-23.136718-5.027344-31.835937 3.070312l-27.964844 26.183594v-2.28125c0-23.5625-19.101562-42.664062-42.667969-42.664062-14.136718 0-25.597656 11.460937-25.597656 25.597656v83.578125l-20.890625 22.65625c-5.933593 6.40625-9.164062 14.855469-9.027343 23.585937-.167969 29.746094 2.027343 59.464844 6.570312 88.863282.183594.671874.453125 1.316406.800781 1.921874l-13.925781 39.175782c-5.296875 14.582031.035156 30.898437 12.917969 39.542968l4.875 3.3125c-4.976563 14.503907.3125 30.546876 12.933593 39.253907l138.164063 94.71875c2.328125 1.59375 3.714844 4.230469 3.714844 7.046875 0 14.140625 11.460937 25.601562 25.597656 25.601562h124.015625c7.785156.019532 15.152344-3.53125 19.984375-9.632812 4.929687-6.203125 6.71875-14.335938 4.847656-22.035156l-12.457031-46.078126c-4.382812-20.136718-5.671875-40.824218-3.824219-61.347656 7.03125-89.179687-52.753906-153.601562-67.917969-164.796875-27.894531-20.5625-48.699218-42-57.097656-58.820312-12.585937-25.238281-4.101562-42.503907 4.097656-59.195313 6.878907-14.003906 13.996094-28.476562 3.898438-43.65625-5.335938-8.742187-14.011719-14.925781-24.019531-17.117187zm-127.660157 4.890625c14.140626 0 25.601563 11.460937 25.601563 25.597656v18.261719l-34.132813 31.949219v-67.277344c0-2.261719.898438-4.433594 2.5-6.03125 1.597657-1.601563 3.769532-2.5 6.03125-2.5zm-38.449218 138.121094c-.070313-4.363282 1.546875-8.585938 4.511718-11.785157l22.519532-24.464843c.207031-.175782.398437-.359376.582031-.554688l50.109375-46.890625c.484375-.367187.925781-.785156 1.320312-1.246094l41.917969-39.253906c3.339844-3.25 8.664063-3.25 12.003907 0l.582031-.582031c.207031.242187.429687.464844.664062.675781l-.539062.691406c9.269531 10.042969 9.011719 25.59375-.578125 35.328125l-33.5625 32.222656-47.257813 42.5625c-3.070312 3.269532-4.683593 7.640626-4.480469 12.117188-15.878906 2.066406-29.265624 12.851562-34.660156 27.929688l-10.710937 30.125c-1.714844-20.976563-2.261719-44.726563-2.421875-56.875zm64.785156-1.589844 24.660156-22.1875c-.324218 7.40625-.054687 14.828125.8125 22.1875zm-72.355469 137.601562 36.796875-103.542968c3.683594-10.234376 13.414063-17.042969 24.292969-16.992188h73.226563c1.769531.011719 3.496093.566406 4.9375 1.589844l44.171874 31.300781c1.726563 1.195313 2.773438 3.152344 2.804688 5.253906.015625 1.199219-.296875 2.378907-.902344 3.414063-.300781.496094-.691406.988281-1.050781 1.476562l-13.859375-9.914062c-7.210938-5.179688-15.867188-7.960938-24.746094-7.953125h-67.15625c-18.066406.027343-34.15625 11.433593-40.167968 28.472656l-30.71875 87.296875-1.109376-.75c-6.453124-4.257812-9.148437-12.382812-6.519531-19.652344zm178.519531-225.664062c-8.621093 17.527344-20.414062 41.539062-4.046874 74.34375 13.082031 26.222656 44.605468 51.941406 62.234374 64.917968 11.332032 8.339844 67.480469 67.902344 61.03125 149.726563-1.992187 22.359375-.554687 44.894531 4.265626 66.816406l12.457031 46.082031c.582031 2.527344-.019531 5.183594-1.632813 7.21875-1.613281 2.03125-4.066406 3.21875-6.660156 3.226563h-124.058594c-4.710937 0-8.53125-3.824219-8.53125-8.535156.011719-8.441407-4.140625-16.34375-11.09375-21.128907l-138.15625-94.71875c-6.367187-4.382812-9.007812-12.488281-6.441406-19.78125l36.546875-103.765624c3.609375-10.203126 13.242187-17.035157 24.066406-17.066407h67.15625c5.324219-.003906 10.515625 1.664063 14.839844 4.769531l39.398437 28.203126c2.769532 2.015624 3.542969 5.804687 1.792969 8.746093-3.578125 6-9.460937 10.261719-16.269531 11.800781-6.8125 1.535157-13.957031.207032-19.761719-3.675781l-17.066406-11.390625c-4.195313-2.824218-9.140625-4.328125-14.199219-4.320312h-26.28125c-11.109375-.066406-20.972656 7.101562-24.335937 17.691406-.503907 1.59375-1.222657 3.574219-2.03125 5.800781-6.144531 16.980469-20.480469 56.714844 12.046875 69.761719 2.855468 1.269531 6.175781.875 8.65625-1.023438 2.480468-1.898437 3.722656-5 3.242187-8.085937-.480469-3.089844-2.609375-5.664063-5.546875-6.722656-14.3125-5.742188-11.292968-23.398438-2.347656-48.117188.902344-2.492187 1.707031-4.683593 2.253906-6.460937 1.136719-3.480469 4.402344-5.820313 8.0625-5.777344h26.273438c1.675781 0 3.3125.5 4.703125 1.433594l17.066406 11.402344c9.695313 6.472656 21.621094 8.6875 32.992187 6.125 11.371094-2.5625 21.195313-9.679688 27.175782-19.683594 6.257812-10.578125 3.429687-24.183594-6.527344-31.386719l-11.664062-8.390625c.621093-.851562 1.296874-1.703125 1.824218-2.558594 6.335938-10.570312 3.4375-24.234375-6.636718-31.324218l-44.160157-31.351563c-4.339843-3.070313-9.523437-4.726563-14.839843-4.738281h-19.296876c-1.773437-13.214844-1.34375-26.636719 1.265626-39.714844l36.359374-34.574219c13.144532-13.207031 16.199219-33.417969 7.542969-49.921875 9.046875-2.847656 18.835938 1.128906 23.339844 9.472656 4.230469 6.367188 1.859375 12.699219-5.007813 26.675782zm0 0" fill="#000000" data-original="#000000" style="" class=""/><path xmlns="http://www.w3.org/2000/svg" d="m160.386719 358.605469c-2.894531-.964844-6.085938-.3125-8.371094 1.710937-2.285156 2.023438-3.316406 5.113282-2.707031 8.105469.613281 2.992187 2.773437 5.429687 5.667968 6.398437 19.695313 6.601563 70.828126 30.285157 70.828126 60.167969 0 4.710938 3.820312 8.53125 8.53125 8.53125 4.714843 0 8.535156-3.820312 8.535156-8.53125-.027344-48.308593-79.113282-75.28125-82.484375-76.382812zm0 0" fill="#000000" data-original="#000000" style="" class=""/><path xmlns="http://www.w3.org/2000/svg" d="m218.03125 327.375c-1.847656-2.429688-4.847656-3.6875-7.871094-3.300781-3.027344.386719-5.617187 2.355469-6.792968 5.167969-1.179688 2.8125-.769532 6.039062 1.078124 8.464843 13.019532 17.066407 34.679688 37.496094 63.921876 37.496094 4.714843 0 8.535156-3.820313 8.535156-8.535156 0-4.710938-3.820313-8.53125-8.535156-8.53125-22.253907 0-39.628907-16.734375-50.335938-30.761719zm0 0" fill="#000000" data-original="#000000" style="" class=""/><path xmlns="http://www.w3.org/2000/svg" d="m223.867188 2.859375-8.132813 8.535156c-2.222656 2.183594-3.078125 5.40625-2.230469 8.402344.847656 3 3.265625 5.300781 6.300782 5.996094 3.039062.699219 6.214843-.3125 8.285156-2.640625l8.132812-8.535156c2.222656-2.183594 3.078125-5.40625 2.230469-8.40625-.847656-2.996094-3.265625-5.296876-6.300781-5.992188-3.039063-.699219-6.214844.3125-8.285156 2.640625zm0 0" fill="#000000" data-original="#000000" style="" class=""/><path xmlns="http://www.w3.org/2000/svg" d="m264.261719 41.164062c-.609375-2.179687-2.0625-4.027343-4.039063-5.136718-1.972656-1.109375-4.308594-1.390625-6.488281-.777344l-11.09375 3.125c-4.140625 1.125-6.804687 5.148438-6.21875 9.402344.585937 4.25 4.238281 7.402344 8.53125 7.367187.785156 0 1.566406-.109375 2.320313-.324219l11.09375-3.117187c2.179687-.613281 4.027343-2.070313 5.132812-4.046875s1.378906-4.3125.761719-6.492188zm0 0" fill="#000000" data-original="#000000" style="" class=""/><path xmlns="http://www.w3.org/2000/svg" d="m240.488281 75.871094c-4.539062-1.273438-9.25 1.371094-10.523437 5.910156-1.277344 4.539062 1.371094 9.25 5.90625 10.523438l11.09375 3.125c.757812.210937 1.539062.320312 2.324218.316406 4.261719-.003906 7.871094-3.152344 8.449219-7.375.578125-4.226563-2.050781-8.226563-6.15625-9.378906zm0 0" fill="#000000" data-original="#000000" style="" class=""/></g></svg>
